# xmcd
#
# Track frame offsets:
# 150
# 23700
# 48150
# 71850
# 94125
# 118725
# 138900
# 156600
#
# Disc length: 2537 seconds
#
#
# Revision: 0
# Processed by: cddbd v1.4PL0 Copyright (c) Steve Scherf et al.
# Submitted via: FreeRIP 2.12 
#
DISCID=6e09e708
DTITLE=Nancy Harrow - Wild Women Don't Have the Blues
DYEAR=1900
DGENRE=Blues
TTITLE0=Take Me Back, Baby
TTITLE1=All Too Soon
TTITLE2=Can't We Be Friends?
TTITLE3=On the Sunny Side of the Street
TTITLE4=Wild Women Don't Have the Blues
TTITLE5=I've Got the World on a String
TTITLE6=I Don't Know What Kind of Blues I Got
TTITLE7=Blues for Yesterday
EXTD=
EXTT0=
EXTT1=
EXTT2=
EXTT3=
EXTT4=
EXTT5=
EXTT6=
EXTT7=
PLAYORDER=
